<?xml version="1.0" encoding="UTF-8"?>
<svg version="1.1" xmlns="http://www.w3.org/2000/svg" width="512" height="512">
<path d="M0 0 C9.33268373 8.57174548 15.32148618 20.74676866 16.43546939 33.34800637 C16.50318922 35.45622294 16.51511385 37.55629219 16.5015564 39.6655426 C16.50452654 40.46231964 16.50749667 41.25909667 16.51055682 42.08001846 C16.51813453 44.72342425 16.51172847 47.3666037 16.50537109 50.01000977 C16.50812403 51.91638844 16.51180576 53.82276597 16.51634216 55.72914124 C16.52443115 59.82308567 16.52662836 63.91697556 16.52439499 68.0109272 C16.52155087 74.49764042 16.53595618 80.98424568 16.55337524 87.47093201 C16.60029322 105.91297787 16.62432805 124.35501621 16.63085938 142.79711914 C16.63462204 152.99152372 16.65274848 163.1858058 16.68595374 173.38015789 C16.70605931 179.81440244 16.7085912 186.24832868 16.69767356 192.68259156 C16.69504728 196.70521549 16.70916358 200.72765807 16.72775459 204.7502346 C16.73303065 206.59956828 16.73165951 208.44893633 16.72271919 210.29825592 C16.65820501 224.82834976 18.04539314 238.72092212 25.125 251.75 C25.47014648 252.41233643 25.81529297 253.07467285 26.17089844 253.75708008 C28.76116542 258.6183235 31.68284731 263.04585576 35.25 267.25 C35.87132812 268.06210937 36.49265625 268.87421875 37.1328125 269.7109375 C48.12846634 282.89760724 65.59975076 290.55023185 82.25 293.25 C103.37319752 295.0880374 123.03809159 290.63727499 140.1875 277.8125 C141.56401703 276.65098182 142.91835517 275.4627018 144.25 274.25 C145.00667969 273.57324219 145.76335937 272.89648438 146.54296875 272.19921875 C160.76726358 258.78501776 169.09357119 239.56996284 169.67382812 220.06274414 C169.79538009 198.389594 162.51068345 179.41623343 147.609375 163.58984375 C132.92491949 149.0269483 114.60585011 141.60379487 94.0625 140.75 C79.23609457 140.0495399 67.31749591 135.34360431 56.8359375 124.828125 C47.63395066 114.00631276 43.83549915 101.95375234 44.3125 87.875 C45.63681165 72.89657858 52.39878367 61.77402606 63.6484375 52.109375 C80.66443727 39.94778958 103.20819645 41.54656533 122.96972656 44.76733398 C157.06940652 51.00094377 188.98095019 66.46885608 213.77099609 90.80175781 C215.21357299 92.21433063 216.67882755 93.6036261 218.14453125 94.9921875 C250.06371263 125.79531358 266.83429374 169.63404566 268.2109375 213.49609375 C268.7204827 244.97406162 261.19655303 274.6650958 246.25 302.25 C245.67378906 303.31863281 245.09757812 304.38726562 244.50390625 305.48828125 C221.84275224 345.83874255 182.60492351 374.22228407 138.44726562 386.65673828 C94.63464677 398.48614537 46.28251399 392.06897231 6.77734375 369.94140625 C-33.90676718 346.22863077 -63.31047685 308.33321253 -75.85327148 262.92602539 C-81.0706904 242.98849867 -81.90212888 223.04671781 -81.89526367 202.54980469 C-81.89826423 200.73442517 -81.90166879 198.91904629 -81.90544128 197.10366821 C-81.91418822 192.22379684 -81.91661525 187.34394305 -81.91725707 182.4640646 C-81.91797219 179.40716562 -81.92011504 176.350271 -81.92275429 173.29337311 C-81.93197254 162.60703756 -81.93609307 151.9207144 -81.93530273 141.234375 C-81.93470091 131.30496649 -81.94528229 121.37561211 -81.9610464 111.4462173 C-81.97414668 102.88696437 -81.97948568 94.32772911 -81.97884732 85.76846623 C-81.97859334 80.67101073 -81.98139033 75.57360357 -81.99202538 70.47615814 C-82.00174998 65.68583069 -82.0017558 60.89559746 -81.99450874 56.10526657 C-81.99346875 54.35582973 -81.99579071 52.60638688 -82.0018692 50.8569603 C-82.06346098 31.89160575 -80.32139225 16.37770918 -66.71875 2.12109375 C-47.79068817 -15.94971891 -20.31077162 -15.89734453 0 0 Z " fill="#476FDC" transform="translate(162.75,65.75)"/>
<path d="M0 0 C7.03995368 5.0488147 13.46782068 10.61251187 19.64599609 16.67675781 C21.08857299 18.08933063 22.55382755 19.4786261 24.01953125 20.8671875 C57.83819835 53.50338373 73.23903296 98.94878325 74.125 145.125 C74.58427676 178.00156159 58.30933456 209.85919691 36.125 233.125 C17.46282814 252.24939284 -7.87464184 263.46578795 -33.875 268.125 C-34.61492187 268.25777344 -35.35484375 268.39054687 -36.1171875 268.52734375 C-67.40955675 272.97159075 -100.15029809 264.17826932 -125.8125 246.125 C-131.10325053 242.08289861 -136.03727751 237.69483557 -140.875 233.125 C-142.00035156 232.09632813 -142.00035156 232.09632813 -143.1484375 231.046875 C-162.11091345 213.0824241 -176.3035839 184.73116181 -178.05078125 158.484375 C-178.0601557 156.6969806 -177.98205262 154.90921029 -177.875 153.125 C-177.545 153.125 -177.215 153.125 -176.875 153.125 C-176.6790625 154.094375 -176.483125 155.06375 -176.28125 156.0625 C-173.30770737 169.74837638 -168.00994546 182.35881428 -158.875 193.125 C-157.94300781 194.34316406 -157.94300781 194.34316406 -156.9921875 195.5859375 C-145.99653366 208.77260724 -128.52524924 216.42523185 -111.875 219.125 C-90.75180248 220.9630374 -71.08690841 216.51227499 -53.9375 203.6875 C-52.56098297 202.52598182 -51.20664483 201.3377018 -49.875 200.125 C-49.11832031 199.44824219 -48.36164063 198.77148438 -47.58203125 198.07421875 C-33.35773642 184.66001776 -25.03142881 165.44496284 -24.45117188 145.93774414 C-24.32961991 124.264594 -31.61431655 105.29123343 -46.515625 89.46484375 C-61.20008051 74.9019483 -79.51914989 67.47879487 -100.0625 66.625 C-114.88890543 65.9245399 -126.80750409 61.21860431 -137.2890625 50.703125 C-146.49104934 39.88131276 -150.28950085 27.82875234 -149.8125 13.75 C-148.48818835 -1.22842142 -141.72621633 -12.35097394 -130.4765625 -22.015625 C-94.50427547 -47.72554786 -31.95425631 -22.32226828 0 0 Z " fill="#96B3FE" transform="translate(356.875,139.875)"/>
<path d="M0 0 C36.45148386 0.91964753 74.04890862 21.54939178 99.52099609 46.55175781 C100.96357299 47.96433063 102.42882755 49.3536261 103.89453125 50.7421875 C137.71319835 83.37838373 153.11403296 128.82378325 154 175 C154.45927676 207.87656159 138.18433456 239.73419691 116 263 C97.33782814 282.12439284 72.00035816 293.34078795 46 298 C45.26007813 298.13277344 44.52015625 298.26554687 43.7578125 298.40234375 C12.46544325 302.84659075 -20.27529809 294.05326932 -45.9375 276 C-51.22825053 271.95789861 -56.16227751 267.56983557 -61 263 C-62.12535156 261.97132813 -62.12535156 261.97132813 -63.2734375 260.921875 C-82.23591345 242.9574241 -96.4285839 214.60616181 -98.17578125 188.359375 C-98.1851557 186.5719806 -98.10705262 184.78421029 -98 183 C-97.67 183 -97.34 183 -97 183 C-96.8040625 183.969375 -96.608125 184.93875 -96.40625 185.9375 C-93.43270737 199.62337638 -88.13494546 212.23381428 -79 223 C-78.06800781 224.21816406 -78.06800781 224.21816406 -77.1171875 225.4609375 C-66.22303582 238.52587956 -48.58888825 246.54317039 -32 249 C-27.06318988 249.35432525 -22.13527089 249.43980881 -17.1875 249.4375 C-16.50291718 249.43823517 -15.81833435 249.43897034 -15.11300659 249.43972778 C3.1324639 249.38840101 18.71864123 245.05707241 35 237 C36.12921875 236.45472656 37.2584375 235.90945313 38.421875 235.34765625 C46.73182341 231.12310114 53.8220867 225.87805151 61 220 C61.75152344 219.40316406 62.50304687 218.80632812 63.27734375 218.19140625 C68.99570425 213.46951253 73.47437999 207.84592391 78 202 C78.68191406 201.14535156 79.36382812 200.29070312 80.06640625 199.41015625 C99.71755653 173.83674151 106.9278283 139.82005762 103.23071289 108.15600586 C98.9959264 76.53607297 82.50669959 46.30093941 57.34375 26.40234375 C39.65571429 13.42282854 21.20753056 6.05162912 0 1 C0 0.67 0 0.34 0 0 Z " fill="#6E94F4" transform="translate(277,110)"/>
</svg>
